<?xml version="1.0" standalone="no"?>
<!DOCTYPE svg PUBLIC "-//W3C//DTD SVG 20010904//EN"
 "http://www.w3.org/TR/2001/REC-SVG-20010904/DTD/svg10.dtd">
<svg version="1.0" xmlns="http://www.w3.org/2000/svg"
 width="700.000000pt" height="700.000000pt" viewBox="0 0 700.000000 700.000000"
 preserveAspectRatio="xMidYMid meet">
<metadata>
Created by potrace 1.14, written by Peter Selinger 2001-2017
</metadata>
<g transform="translate(0.000000,700.000000) scale(0.100000,-0.100000)"
fill="#000000" stroke="none">
<path d="M3128 6995 c-2 -1 -30 -5 -63 -9 -33 -3 -71 -8 -85 -11 -14 -3 -41
-8 -60 -11 -211 -37 -490 -153 -704 -294 -144 -94 -194 -118 -258 -126 -29 -3
-197 -6 -373 -7 -298 -2 -323 -3 -359 -22 -60 -30 -81 -66 -81 -134 0 -74 17
-105 74 -133 45 -23 52 -23 461 -25 446 -2 476 -5 511 -53 44 -60 25 -145 -39
-177 -35 -17 -81 -18 -702 -19 -652 0 -666 -1 -712 -21 -55 -25 -79 -57 -85
-117 -10 -86 28 -145 109 -166 21 -6 146 -13 277 -15 194 -3 244 -6 269 -19
57 -30 74 -97 39 -158 -37 -67 -30 -67 -621 -67 -498 -1 -531 -2 -572 -20 -56
-25 -84 -70 -84 -135 0 -62 31 -117 79 -142 34 -18 76 -19 930 -21 785 -1 900
-4 936 -17 94 -36 103 -159 15 -210 -34 -20 -49 -21 -590 -22 -553 -2 -612 -4
-653 -26 -87 -46 -100 -185 -23 -246 51 -40 108 -43 763 -46 572 -2 631 -3
660 -19 79 -42 80 -166 2 -207 -35 -19 -102 -21 -805 -21 -522 1 -741 -2 -765
-10 -76 -26 -108 -84 -95 -172 8 -49 36 -86 86 -112 32 -17 69 -19 460 -21
476 -2 488 -4 514 -66 32 -76 -8 -155 -87 -175 -12 -3 -305 -6 -652 -7 l-630
-1 -38 -23 c-50 -32 -66 -66 -63 -134 4 -92 50 -138 151 -154 28 -4 372 -8
765 -8 780 -1 746 1 771 -58 6 -16 9 -49 6 -75 -6 -54 -36 -85 -96 -101 -20
-5 -216 -9 -435 -10 -381 -1 -401 -2 -441 -22 -56 -27 -79 -73 -73 -145 6 -68
28 -102 86 -128 45 -20 64 -21 547 -25 360 -2 506 -6 524 -15 34 -17 47 -61
31 -106 -33 -94 -143 -300 -228 -426 -52 -77 -100 -147 -108 -156 -12 -13 -64
-35 -109 -45 -13 -3 -214 -64 -340 -104 -55 -18 -120 -38 -145 -45 -41 -12
-171 -50 -410 -122 -47 -14 -101 -30 -120 -35 -127 -36 -194 -114 -220 -251
-16 -85 -12 -130 34 -385 57 -313 168 -640 302 -889 25 -49 53 -100 61 -115
20 -39 84 -101 123 -120 39 -19 171 -19 207 0 11 6 33 14 49 16 16 3 207 58
424 122 217 64 409 119 425 124 17 4 145 42 285 83 257 76 308 91 590 173 85
25 209 61 275 81 66 19 289 83 495 143 206 60 405 122 442 139 142 63 258 157
389 310 177 209 386 356 699 493 259 113 1427 536 1555 563 11 2 53 11 94 19
l75 14 27 -29 c15 -16 34 -29 43 -29 52 0 97 60 76 101 -6 10 -12 51 -14 91
-5 82 -45 246 -107 430 -48 142 -63 172 -98 189 -14 8 -40 28 -57 46 -20 21
-41 33 -58 33 -31 0 -76 -40 -76 -68 0 -32 -146 -83 -533 -186 -324 -86 -385
-102 -427 -111 -8 -2 -71 -17 -140 -34 -69 -16 -136 -32 -150 -35 -14 -2 -60
-12 -104 -21 -43 -9 -80 -15 -81 -13 -2 2 0 21 5 43 13 53 12 122 0 165 -17
57 -19 140 -5 181 8 21 40 82 73 136 32 54 70 127 85 163 23 57 25 74 20 140
-16 197 4 228 194 289 211 68 222 134 67 391 -59 99 -192 313 -239 385 -76
118 -97 212 -69 317 9 35 18 72 21 83 9 39 11 221 2 285 -18 131 -21 146 -31
190 -5 25 -11 52 -13 60 -37 181 -146 437 -256 603 -22 32 -39 61 -39 63 0 3
-30 42 -66 87 -326 405 -752 652 -1274 737 -65 11 -433 23 -442 15z m-1758
-547 c29 -32 34 -60 16 -102 -8 -20 -16 -36 -18 -36 -2 0 -17 -4 -34 -9 -62
-18 -125 42 -110 104 16 63 103 88 146 43z m-503 -572 c42 -35 44 -87 5 -126
-24 -24 -36 -28 -67 -25 -114 10 -103 174 12 175 12 0 34 -11 50 -24z m-597
-541 c26 -13 39 -35 46 -74 4 -21 -23 -69 -45 -81 -81 -43 -167 54 -115 128
28 41 69 50 114 27z m645 -571 c45 -21 60 -63 40 -110 -17 -41 -51 -59 -98
-50 -88 16 -89 148 -2 169 11 3 22 5 23 6 2 0 19 -6 37 -15z m-171 -580 c32
-33 35 -80 6 -116 -37 -48 -112 -41 -144 13 -50 85 67 173 138 103z m-419
-559 c17 -16 25 -35 25 -60 0 -79 -92 -116 -149 -60 -35 34 -33 90 3 122 37
31 89 31 121 -2z m656 -574 c20 -20 29 -39 29 -61 0 -37 -47 -90 -79 -90 -39
0 -71 20 -88 54 -14 30 -14 39 -3 66 13 32 55 59 93 60 10 0 32 -13 48 -29z
m5578 -163 c-5 -18 -17 -40 -26 -49 -25 -23 -132 -63 -238 -89 -49 -12 -103
-26 -120 -31 -16 -5 -59 -15 -95 -23 -36 -8 -132 -31 -215 -51 -133 -32 -175
-42 -210 -51 -13 -3 -276 -65 -295 -69 -8 -2 -116 -26 -240 -54 -219 -48 -252
-55 -315 -66 -16 -3 -41 -8 -55 -10 -14 -3 -36 -8 -50 -10 -126 -25 -278 -40
-420 -39 -176 0 -259 12 -437 65 -167 50 -218 58 -343 55 -110 -3 -124 -6
-330 -70 -285 -89 -435 -136 -490 -151 -25 -7 -110 -33 -190 -58 -80 -25 -280
-86 -445 -136 -165 -50 -327 -100 -360 -111 -33 -10 -166 -51 -295 -90 -129
-40 -262 -80 -295 -90 -33 -10 -112 -34 -175 -53 -409 -124 -434 -134 -463
-184 -18 -32 -25 -143 -12 -203 7 -34 11 -57 20 -110 10 -62 11 -66 30 -145 9
-38 18 -78 20 -88 2 -10 7 -27 10 -37 3 -10 8 -27 10 -37 4 -21 41 -141 97
-313 72 -222 96 -300 92 -300 -8 0 -150 303 -183 390 -18 47 -37 94 -41 105
-59 138 -139 489 -145 637 -4 93 8 136 52 188 58 67 135 96 793 290 96 28 182
54 190 57 8 3 20 7 25 8 6 2 51 15 100 31 50 15 95 29 100 30 6 1 102 30 215
64 113 34 266 80 340 102 74 22 164 49 200 59 36 11 72 22 80 24 8 2 130 38
270 80 140 41 287 85 325 96 39 12 97 30 130 40 172 54 247 67 365 65 63 -2
124 -6 135 -10 91 -28 267 -67 363 -82 165 -24 462 -24 597 1 17 2 102 19 190
36 88 17 171 33 185 36 14 2 57 11 95 19 39 7 81 16 95 18 14 3 36 7 50 10 64
14 77 17 100 21 14 3 45 10 70 15 25 5 74 16 110 24 36 8 77 17 91 20 23 4
108 24 239 56 25 6 54 13 65 15 100 22 603 170 614 180 2 3 10 5 17 5 9 0 10
-8 3 -32z"/>
</g>
</svg>
