<svg width="512" height="512" viewBox="0 0 512 512" fill="none" xmlns="http://www.w3.org/2000/svg">
	<path d="M507.736 340.881L506.261 336.816C506.913 334.959 507.023 332.955 506.579 331.037C503.907 318.406 500.284 305.996 495.741 293.912C495.211 292.29 494.254 290.842 492.969 289.721C491.684 288.6 490.121 287.847 488.443 287.542L488.103 286.589C487.641 285.33 486.725 284.291 485.535 283.674C484.346 283.057 482.968 282.907 481.674 283.255C480.38 283.602 479.262 284.42 478.541 285.55C477.82 286.679 477.546 288.038 477.775 289.359C471.851 291.754 465.984 294.445 459.844 296.046C430.632 303.653 401.545 312.122 371.913 317.618C374.183 312.826 374.342 306.726 372.39 299.316C370.801 293.23 371.845 289.03 375.193 283.546C380.3 275.144 387.676 264.336 385.906 256.354C382.501 241.152 389.436 238.45 400.66 235.407C412.848 232.103 415.493 225.984 409.353 214.857C402.339 202.164 394.236 190.073 386.576 177.743C382.172 170.658 379.562 163.267 382.365 154.888C385.475 145.579 384.851 136.28 383.659 126.63C370.256 18.1133 245.94 -36.6671 157.43 27.2415C151.2 31.7829 144.946 34.0536 137.309 33.8946C124.326 33.5995 111.32 33.7584 98.3252 33.8379C90.2789 33.8946 83.2766 36.2902 83.4128 45.759C83.5376 54.6261 90.3356 56.7832 97.9053 56.84C110.514 56.9195 123.123 56.84 135.742 56.84C141.088 56.84 146.445 56.84 151.79 57.0443C157.135 57.2487 161.879 59.4286 162.117 65.5594C162.378 72.3715 157.498 74.6422 151.54 74.9601C147.738 75.1758 143.902 75.1191 140.078 75.1191C114.089 75.1191 88.0999 75.0169 62.1109 75.0282C54.4845 75.0282 47.8 77.4578 47.539 86.1319C47.2666 95.4985 54.0419 98.1552 62.2925 98.212C71.8483 98.2801 81.4154 98.212 90.9484 98.5866C95.9306 98.8024 100.096 101.221 99.9481 106.943C99.8119 112.177 96.5434 115.39 91.3116 116.026C87.8862 116.34 84.4452 116.45 81.0068 116.355C59.9887 116.355 38.9592 116.253 17.941 116.355C10.4962 116.355 5.16219 119.488 5.0033 127.708C4.84442 135.928 10.4394 138.869 17.6687 139.448C21.0733 139.732 24.5461 139.652 27.9848 139.652C60.0946 139.652 92.2006 139.607 124.303 139.516C130.034 139.516 135.765 139.459 141.496 139.595C147.228 139.732 152.698 141.469 152.913 148.235C153.152 155.763 147.432 157.5 141.179 157.715C136.639 157.874 132.009 157.806 127.424 157.806C106.791 157.806 86.1479 157.727 65.5042 157.806C58.0594 157.806 52.4417 161.053 52.1352 168.91C51.8061 177.084 57.9459 179.934 65.0049 180.615C69.5444 181.058 74.1634 180.865 78.7484 180.865C103.591 180.865 128.434 180.865 153.277 180.979C159.064 180.979 164.353 182.931 164.489 189.789C164.625 196.646 159.496 198.622 153.64 198.951C149.826 199.167 145.991 199.099 142.177 199.099C111.974 199.053 81.7785 199 51.5905 198.94C44.2704 198.94 38.1307 201.131 37.9718 209.385C37.8129 217.639 43.1356 221.704 51.216 222.044C55.0292 222.203 58.8538 222.135 62.6784 222.146C77.2049 222.146 91.7315 222.146 106.247 222.226C111.603 222.226 116.586 223.497 116.722 230.105C116.858 236.713 112.682 239.642 106.508 240.028C103.103 240.232 99.6303 240.21 96.1916 240.198C71.3527 240.198 46.51 240.145 21.6635 240.039C14.3321 240.039 8.26044 242.378 8.10156 250.609C7.94268 258.841 13.1972 262.973 21.2436 263.427C24.6482 263.621 28.121 263.575 31.5597 263.564C60.9987 263.564 90.4264 263.462 119.854 263.507C125.608 263.507 132.406 263.212 132.587 271.386C132.769 279.561 126.323 281.094 119.843 281.298C111.445 281.57 103.035 281.4 94.6255 281.423C85.4556 281.423 76.2743 281.343 67.1044 281.548C60.5902 281.684 55.8236 284.727 55.4037 291.629C54.9838 298.759 58.9446 303.165 66.0036 304.277C69.414 304.696 72.8509 304.859 76.2857 304.765C95.3972 304.765 114.509 304.993 133.62 304.765C143.063 304.629 145.446 308.626 141.564 316.732C137.956 324.214 134.483 331.946 129.943 338.985C125.926 345.252 121.681 351.315 117.278 357.275L63.1437 373.885C53.4858 376.849 43.6917 379.369 34.1132 382.548C23.3658 386.102 18.8603 394.219 19.0986 409.376C23.2069 438.679 30.8561 471.184 48.061 500.601C54.3937 511.432 60.7491 513.998 72.9605 510.592C105.486 501.509 137.797 491.689 170.198 482.209C207.048 471.446 243.875 460.637 280.781 450.067C295.629 446.027 308.769 437.284 318.233 425.146C333.565 405.845 354.549 393.799 376.974 384.944C408.377 372.546 440.245 361.34 472.044 349.986C479.798 347.386 487.744 345.401 495.809 344.048C496.331 343.958 496.796 343.81 497.273 343.685L497.579 344.525C497.819 345.189 498.187 345.798 498.663 346.32C499.138 346.841 499.712 347.263 500.35 347.562C500.989 347.862 501.68 348.032 502.385 348.065C503.089 348.097 503.793 347.99 504.457 347.75C505.12 347.51 505.729 347.141 506.25 346.666C506.771 346.19 507.193 345.616 507.492 344.977C507.792 344.338 507.962 343.647 507.994 342.942C508.027 342.237 507.92 341.533 507.68 340.869L507.736 340.881ZM95.8285 51.5152C94.5396 51.5152 93.2797 51.1327 92.2082 50.4161C91.1366 49.6996 90.3017 48.6811 89.809 47.4896C89.3163 46.2981 89.1879 44.9872 89.4402 43.7228C89.6925 42.4583 90.314 41.2971 91.2262 40.3862C92.1384 39.4752 93.3002 38.8555 94.5646 38.6053C95.8289 38.3551 97.1391 38.4858 98.3292 38.9808C99.5194 39.4758 100.536 40.3128 101.25 41.386C101.965 42.4592 102.345 43.7203 102.343 45.0097C102.343 45.8649 102.174 46.7118 101.847 47.5019C101.519 48.2919 101.039 49.0096 100.434 49.6138C99.829 50.218 99.1108 50.697 98.3205 51.0233C97.5302 51.3495 96.6834 51.5167 95.8285 51.5152V51.5152ZM59.3418 93.523C58.0534 93.523 56.7939 93.1408 55.7226 92.4247C54.6514 91.7086 53.8164 90.6908 53.3234 89.5C52.8303 88.3092 52.7013 86.9989 52.9527 85.7347C53.204 84.4706 53.8245 83.3094 54.7355 82.398C55.6465 81.4866 56.8073 80.8659 58.0709 80.6144C59.3346 80.363 60.6444 80.4921 61.8347 80.9853C63.025 81.4786 64.0424 82.3138 64.7582 83.3855C65.474 84.4572 65.856 85.7172 65.856 87.0061C65.856 87.8619 65.6876 88.7094 65.3602 89.5C65.0328 90.2907 64.553 91.0091 63.948 91.6142C63.3431 92.2194 62.625 92.6994 61.8347 93.0269C61.0443 93.3545 60.1973 93.523 59.3418 93.523V93.523ZM16.6473 133.862C15.3589 133.862 14.0994 133.48 13.0281 132.764C11.9569 132.047 11.1219 131.03 10.6289 129.839C10.1358 128.648 10.0068 127.338 10.2582 126.074C10.5095 124.809 11.1299 123.648 12.041 122.737C12.952 121.825 14.1127 121.205 15.3764 120.953C16.64 120.702 17.9498 120.831 19.1402 121.324C20.3305 121.817 21.3479 122.653 22.0637 123.724C22.7795 124.796 23.1615 126.056 23.1615 127.345C23.166 128.203 23.0008 129.054 22.6753 129.848C22.3498 130.642 21.8704 131.363 21.2649 131.971C20.6594 132.579 19.9397 133.061 19.1472 133.389C18.3547 133.718 17.5051 133.886 16.6473 133.885V133.862ZM64.1197 175.631C62.8308 175.631 61.5709 175.249 60.4994 174.532C59.4279 173.816 58.5929 172.797 58.1002 171.606C57.6075 170.414 57.4791 169.103 57.7314 167.839C57.9837 166.574 58.6052 165.413 59.5174 164.502C60.4296 163.591 61.5914 162.971 62.8558 162.721C64.1202 162.471 65.4303 162.602 66.6204 163.097C67.8106 163.592 68.8272 164.429 69.5416 165.502C70.256 166.575 70.6362 167.836 70.6339 169.126C70.6339 169.981 70.4654 170.828 70.1378 171.618C69.8103 172.408 69.3303 173.126 68.7253 173.73C68.1202 174.334 67.402 174.813 66.6117 175.139C65.8214 175.466 64.9746 175.633 64.1197 175.631V175.631ZM49.9109 216.946C48.6225 216.946 47.363 216.564 46.2917 215.848C45.2204 215.132 44.3855 214.114 43.8925 212.923C43.3994 211.733 43.2704 210.422 43.5217 209.158C43.7731 207.894 44.3935 206.733 45.3046 205.821C46.2156 204.91 47.3763 204.289 48.64 204.038C49.9036 203.786 51.2134 203.915 52.4038 204.409C53.5941 204.902 54.6115 205.737 55.3273 206.809C56.043 207.881 56.4251 209.141 56.4251 210.43C56.4281 212.153 55.7475 213.807 54.5325 215.029C53.3176 216.251 51.6676 216.94 49.9449 216.946H49.9109ZM19.2689 257.819C17.9805 257.819 16.721 257.437 15.6497 256.721C14.5784 256.005 13.7435 254.987 13.2505 253.796C12.7574 252.605 12.6284 251.295 12.8797 250.031C13.1311 248.766 13.7515 247.605 14.6626 246.694C15.5736 245.782 16.7343 245.162 17.998 244.91C19.2616 244.659 20.5714 244.788 21.7618 245.281C22.9521 245.774 23.9695 246.61 24.6852 247.681C25.401 248.753 25.7831 250.013 25.7831 251.302C25.7802 253.021 25.0987 254.668 23.8872 255.887C22.6757 257.105 21.0321 257.796 19.3142 257.808L19.2689 257.819ZM67.4449 299.827C66.1555 299.829 64.8945 299.448 63.8215 298.733C62.7485 298.018 61.9118 297 61.4173 295.809C60.9229 294.618 60.7929 293.306 61.0439 292.041C61.2949 290.776 61.9155 289.614 62.8273 288.702C63.739 287.79 64.9008 287.169 66.1655 286.918C67.4302 286.667 68.7409 286.797 69.9317 287.291C71.1225 287.786 72.1398 288.623 72.8547 289.696C73.5696 290.77 73.95 292.031 73.9478 293.321C73.9331 295.023 73.2523 296.651 72.0515 297.857C70.8507 299.062 69.2254 299.749 67.5243 299.77L67.4449 299.827ZM477.321 305.083C471.843 307.573 466.143 309.546 460.298 310.976C426.649 319.048 393.079 327.597 359.202 334.614C333.871 339.848 308.064 344.446 282.938 336.249C269.954 332.002 257.437 329.039 244.703 332.933C177.926 353.309 111.157 373.715 44.3953 394.151C32.7059 397.739 31.3441 400.214 32.1952 412.317C36.8823 446.616 47.0055 468.97 53.5425 492.29C45.6358 477.934 39.133 462.847 34.1246 447.24C31.1367 438.298 28.8598 429.134 27.3152 419.833C26.2938 413.282 24.3645 404.051 27.2471 397.762C29.1424 393.595 32.6265 390.87 36.7915 388.929C44.2932 385.443 181.49 344.889 242.07 326.95C251.24 324.237 262.498 323.794 271.577 326.507C296.034 333.853 320.639 335.431 345.209 330.629C390.366 321.784 435.705 313.405 480.261 298.192C480.045 301.064 479.217 304.198 477.367 305.027L477.321 305.083Z" fill="url(#paint0_radial_140_585)" />
	<defs>
		<radialGradient id="paint0_radial_140_585" cx="0" cy="0" r="1" gradientUnits="userSpaceOnUse" gradientTransform="translate(256.483 256.014) scale(253.738 253.841)">
			<stop stop-color="#FFF9D2" />
			<stop offset="0.11" stop-color="#FBF2C1" />
			<stop offset="0.33" stop-color="#F2E094" />
			<stop offset="0.37" stop-color="#F0DC8B" />
			<stop offset="0.69" stop-color="#EFBF02" />
			<stop offset="1" stop-color="#C6941A" />
		</radialGradient>
	</defs>
</svg>
